<?xml version="1.0" encoding="UTF-8"?>
<!-- Generator: visioncortex VTracer 0.6.4 -->
<svg version="1.1" xmlns="http://www.w3.org/2000/svg" width="1024" height="1024">
<path d="M0 0 C337.92 0 675.84 0 1024 0 C1024 337.92 1024 675.84 1024 1024 C686.0799999999999 1024 348.15999999999997 1024 0 1024 C0 686.0799999999999 0 348.15999999999997 0 0 Z " fill="#FEFEFE" transform="translate(0,0)"/>
<path d="M0 0 C5.924933632647935 3.766236882768453 11.52681050672959 7.8835688374576876 17.06591796875 12.189453125 C21.317256075764476 15.490173830590663 25.64334043984786 18.670302230498862 30.0078125 21.8203125 C33.59223335517038 24.431418031573173 37.14189771965346 27.08653469873434 40.6875 29.75 C41.360068359374964 30.255231933593734 42.03263671875004 30.760463867187525 42.7255859375 31.281005859375 C44.81750468856268 32.8534100034239 46.90884666722377 34.426578088857696 49 36 C51.85342609104947 38.14682057638896 54.70772044867829 40.292479673041896 57.5625 42.4375 C58.20469482421879 42.921220703125016 58.84688964843747 43.40494140625003 59.508544921875 43.9033203125 C63.62893937093827 46.999129012253036 67.79592154425092 50.01872943485489 72 53 C71.42616909656329 56.64944310016375 70.05791274517384 58.287485952488225 67.4296875 60.828125 C66.69749999999999 61.54613281249999 65.96531249999998 62.26414062499998 65.2109375 63.00390625 C64.44007812500001 63.7451171875 63.66921875000003 64.486328125 62.875 65.25 C57.93561733566031 70.04460765521253 53.167951501640346 74.86391552525151 48.68408203125 80.0888671875 C45.39852774290159 83.81738544919779 41.80149994473197 87.2387121076058 38.25 90.7109375 C33.944209830761565 94.95906083661475 29.929224828499628 99.4019709453728 26 104 C26.651459960937473 103.82460693359371 27.302919921875002 103.64921386718754 27.97412109375 103.468505859375 C29.956685301380276 102.93473857270533 31.939272204060444 102.40105557864501 33.921875 101.867431640625 C36.25797544831255 101.23831635445254 38.59390842075493 100.60857890211912 40.9296875 99.978271484375 C46.81664823278925 98.39056886687126 52.70528483290775 96.81058788563246 58.6015625 95.2578125 C69.85866890709639 92.28279958915812 81.05266915461812 89.15693758573764 92.1875 85.75 C93.26837890625 85.42072509765626 94.34925781250001 85.09145019531252 95.462890625 84.752197265625 C105.58810157656194 81.61174462980841 113.08982376621225 77.73155606671492 121.4375 71.1875 C124.12457041566427 69.10650685153769 126.81199231421829 67.02604186603503 129.50341796875 64.95068359375 C131.10953773618417 63.695755279472735 132.69887499005245 62.41888416578058 134.26611328125 61.11572265625 C139.25929590984651 57.0619095955949 139.25929590984651 57.0619095955949 142.6171875 56.78125 C145.96735714500176 58.49477939219764 148.47511798768357 60.88203466353201 151.125 63.5 C152.27366135294756 64.5988477935615 153.42474008044064 65.69517374674251 154.578125 66.7890625 C155.437607421875 67.6055224609375 155.437607421875 67.6055224609375 156.314453125 68.4384765625 C159.60132839093558 71.48350179438353 163.10036083086607 74.2608218016153 166.609375 77.04296875 C169 79 169 79 170.640625 80.67578125 C174.3670182216024 84.47081855726344 178.50983845567725 86.05309637511311 183.48046875 87.71484375 C185.01796230935918 88.24310516514345 186.55505565151418 88.77253249590228 188.091796875 89.302978515625 C189.29835937500002 89.71762863159177 189.29835937500002 89.71762863159177 190.529296875 90.14065551757813 C194.65510479312343 91.575668180207 198.75490205172468 93.08059942871148 202.85546875 94.5859375 C203.6928004455567 94.8926940917969 204.5301321411132 95.1994506835938 205.39283752441406 95.5155029296875 C207.9913602812859 96.46784741739191 210.589428441157 97.4214253956402 213.1875 98.375 C216.7941196766692 99.69702717988514 220.4009821723912 101.01839140936966 224.0078125 102.33984375 C224.8781562805176 102.65883132934573 225.7485000610352 102.97781890869146 226.6452178955078 103.30647277832031 C236.4233584627143 106.88966599965852 246.2100198702435 110.44928878260282 256 114 C253.4503275119348 109.29848527749107 250.94178595927292 104.67907500568629 247.75 100.375 C244.64724031240303 96.02289902226437 241.78362122672343 91.56005397679871 239 87 C238.58975585937492 86.34048339843753 238.17951171875006 85.68096679687505 237.7568359375 85.00146484375 C236.77361604931434 83.37138976596839 235.87825205109186 81.68894625209975 235 80 C235.32999999999993 79.34000000000003 235.66000000000008 78.68000000000006 236 78 C236.88300781249995 78.5684765625 237.76601562500002 79.13695312499999 238.67578125 79.72265625 C241.8483834854418 81.76444318452195 245.02245663842336 83.80393142631101 248.197265625 85.84228515625 C249.67890262057858 86.79379147166628 251.15985834299045 87.74635854911367 252.640625 88.69921875 C259.51748758265273 93.10262914566636 266.4648287888647 97.39054362409752 273.4111328125 101.68310546875 C282.24860718095215 107.14680387059218 291.0598094983303 112.65201975835714 299.8671875 118.1640625 C303.99439419795 120.74703132247782 308.12478203847536 123.3247980139804 312.2578125 125.8984375 C317.25340295031515 129.00975036857676 322.24215543022297 132.13174615012463 327.22607421875 135.26171875 C329.0482241202503 136.4035694187803 330.87270443286275 137.54171127031736 332.69970703125 138.67578125 C335.1394265135341 140.19075720047215 337.57062973577445 141.71850255807976 340 143.25 C340.71857177734375 143.69182617187494 341.4371435546875 144.13365234375 342.177490234375 144.5888671875 C343.8386801554145 145.64593125158376 345.42891296653124 146.81314620841215 347 148 C347 148.99 347 149.98000000000002 347 151 C342.97344104839397 154.10955151913413 338.4340975053726 156.51515376566488 334 159 C333.4062255859375 159.33725097656247 332.81245117187495 159.67450195312495 332.20068359375 160.02197265625 C275.09653137842815 191.9758984234104 206.5388914920669 186.8119878934217 145.951171875 169.8460693359375 C133.80630689365864 166.36426675545783 121.76085483934435 162.53810196701556 109.7021484375 158.771484375 C85.75779707296772 151.30177300584933 61.86848101774348 144.6192132619518 37 141 C36.061884765624995 140.8519189453125 35.12376953124999 140.70383789062498 34.1572265625 140.55126953125 C20.50212610616734 138.41492929481797 7.046791928154505 137.73226724599226 -6.75 137.75 C-7.523558349609402 137.75068481445317 -8.297116699218748 137.75136962890622 -9.0941162109375 137.7520751953125 C-18.607615268050154 137.69175943131836 -18.607615268050154 137.69175943131836 -28 139 C-29.34918428348658 139.14412842884667 -30.70116102697574 139.26431017142727 -32.0546875 139.359375 C-41.536120981813326 140.1129585775626 -50.76024398375591 141.36477317110848 -60.0625 143.375 C-61.45154541015626 143.67035644531256 -61.45154541015626 143.67035644531256 -62.86865234375 143.9716796875 C-67.43306632471501 144.99906075532147 -71.62812420942618 146.23627183269184 -75.9365234375 148.06396484375 C-82.76786940304623 150.57069230646334 -89.21137641824487 150.50708530909503 -96.41796875 150.390625 C-97.76987359117567 150.3831439483912 -99.1217894418121 150.3774598588384 -100.47370910644531 150.37347412109375 C-103.99365361598723 150.35836379557895 -107.5129143243978 150.31921363539323 -111.0325927734375 150.274658203125 C-114.63947301920581 150.23338534244158 -118.24646617827602 150.2153955491309 -121.853515625 150.1953125 C-128.9026197034995 150.15270068051768 -135.9512646847034 150.08463260954272 -143 150 C-138.00878485922 144.1033930447261 -132.79305663453243 138.5084946056703 -127.375 133 C-126.13556640625 131.70449218750002 -126.13556640625 131.70449218750002 -124.87109375 130.3828125 C-118.90422368657272 124.33319693492274 -112.68480823180437 119.69188639650815 -105 116 C-104.34000000000003 116 -103.68 116 -103 116 C-103 115.34000000000003 -103 114.68000000000006 -103 114 C-102.46375 113.74347656250006 -101.92750000000001 113.48695312500001 -101.375 113.22265625 C-88.07111478830325 106.72388337520738 -75.3635784909755 99.07249565100301 -62.592041015625 91.6005859375 C-53.571580741198034 86.32440072546206 -44.52270788554483 81.09868090568557 -35.46533203125 75.88623046875 C-34.43134277343751 75.29084472656245 -33.397353515625014 74.69545898437502 -32.33203125 74.08203125 C-31.421711425781268 73.55843017578127 -30.51139160156248 73.03482910156254 -29.573486328125 72.495361328125 C-27.79111962956665 71.45969146486061 -26.031282673074486 70.38463094004771 -24.291259765625 69.279296875 C-22 68 -22 68 -20.0078125 68.44921875 C-17.23923286693298 70.58759640433391 -15.07778564118695 73.1199882588736 -12.875 75.8125 C-12.399255371093773 76.38419921875004 -11.923510742187489 76.95589843749997 -11.433349609375 77.544921875 C-7.224478585249983 82.63983437650404 -3.185541102236698 87.86090134795825 0.80859375 93.125 C2.2612445055414128 95.03079493062114 3.753659588376081 96.90696812002864 5.28515625 98.75 C7 101 7 101 7 103 C7.659999999999968 103 8.319999999999993 103 9 103 C9.798686722966295 76.20098857246819 9.283371696767631 50.999063188902255 3.2665557861328125 24.806045532226563 C1.4209198394343616 16.686474375333205 -0.19162549432894593 8.353129502795184 0 0 Z " fill="#0C5D63" transform="translate(409,441)"/>
<path d="M0 0 C2.7256884169350997 0.6837925377703868 5.455874086803135 1.3445695979797847 8.188873291015625 1.9984588623046875 C21.980659929926503 5.327568231556143 35.502100062873296 9.259157857720425 49.02545166015625 13.541580200195313 C64.95963186361087 18.577027633887383 80.89473158986766 23.535099779076518 97.12857055664063 27.518966674804688 C98.3273986816406 27.813356323242147 99.52622680664058 28.10774597167972 100.76138305664063 28.411056518554688 C109.0697854510795 30.39201703231447 117.42808100682907 32.09874400429726 125.81607055664063 33.70646667480469 C126.7014147949219 33.87686462402348 127.58675903320318 34.047262573242165 128.49893188476563 34.22282409667969 C176.16602890670288 42.95087976330103 231.34806173944526 35.57029550093512 273.1637268066406 10.808029174804688 C275.96687475840895 9.149828977984043 278.7361944655811 7.799132266564584 281.8160705566406 6.7064666748046875 C280.433050102475 11.232715433892167 278.50324594036476 12.857285696472445 274.8160705566406 15.706466674804688 C274.0116955566407 16.717091674804692 273.20732055664064 17.727716674804697 272.3785705566406 18.768966674804688 C259.6088214259644 34.072918596878026 239.34183737671617 44.38808277343662 221.00357055664063 51.14396667480469 C220.32278442382813 51.403148803710906 219.64199829101563 51.66233093261724 218.94058227539063 51.92936706542969 C213.753941926773 53.75503938161171 209.30663738665373 53.92694976983944 203.81607055664063 53.70646667480469 C203.4860705566407 55.356466674804665 203.15607055664054 57.00646667480464 202.81607055664063 58.70646667480469 C202.12384399414054 58.865021362304674 201.4316174316407 59.02357604980466 200.71841430664063 59.18693542480469 C193.60710161155498 60.882782062236174 186.74411339478615 63.00201919113192 179.84732055664063 65.42521667480469 C139.62194932321063 78.77792857572888 93.1175778719221 78.37332671182389 51.816070556640625 70.70646667480469 C49.64435428946058 70.33964027360093 47.47247947475546 69.97375125879421 45.300445556640625 69.60881042480469 C34.57274409946342 67.71827956383811 24.17884634811105 65.13099086274588 13.816070556640625 61.76896667480469 C12.356448974609407 61.30152038574215 12.356448974609407 61.30152038574215 10.867340087890625 60.82463073730469 C4.873590209174665 58.77482469546385 -1.7272486269575893 56.37704066001834 -6.183929443359375 51.70646667480469 C-6.535491943359375 49.14421081542969 -6.535491943359375 49.14421081542969 -6.183929443359375 46.70646667480469 C-2.089181331812256 42.04692572028557 4.091389014114213 40.591300527685576 9.816070556640625 38.70646667480469 C9.816070556640625 38.04646667480472 9.816070556640625 37.38646667480464 9.816070556640625 36.70646667480469 C8.052633056640616 36.025841674804724 8.052633056640616 36.025841674804724 6.253570556640625 35.33146667480469 C5.592281494140593 35.0762322998047 4.930992431640618 34.820997924804715 4.249664306640625 34.55802917480469 C-3.330045564509419 31.905739043326776 -9.940007504725259 31.36446180275493 -17.925140380859375 31.390792846679688 C-19.915104941636855 31.393936932641054 -21.905051084429942 31.369667838006535 -23.894866943359375 31.345138549804688 C-33.75443212981634 31.340198887887595 -42.77904340064151 32.214539332827826 -51.308929443359375 37.51896667480469 C-55.667426643856516 39.78702477913862 -58.03914595561707 40.00518681438689 -62.695648193359375 38.57365417480469 C-63.927347412109384 38.14439636230463 -63.927347412109384 38.14439636230463 -65.18392944335938 37.70646667480469 C-73.82107948359481 35.061711765932614 -82.47499257000612 32.89378273786713 -91.30892944335938 31.018966674804688 C-92.29772094726565 30.804579467773465 -93.28651245117186 30.590192260742242 -94.30526733398438 30.369308471679688 C-106.9189829617801 27.75132808597857 -119.38598602197197 27.54435948841501 -132.21469116210938 27.576095581054688 C-134.83860866809619 27.581528122474992 -137.46236039161977 27.57608234753866 -140.08627319335938 27.569747924804688 C-141.75684648724553 27.570407527320867 -143.4274196783732 27.571686236740675 -145.09799194335938 27.573654174804688 C-145.88122833251953 27.57162994384771 -146.66446472167968 27.56960571289062 -147.471435546875 27.567520141601563 C-151.45735251153377 27.497713848112426 -151.45735251153377 27.497713848112426 -155.18392944335938 28.706466674804688 C-157.12192003448422 28.800951589864894 -159.06037923001924 28.890149293666923 -160.99984741210938 28.946701049804688 C-170.62363637415547 29.239952185563993 -178.99424984216682 30.871604072894343 -188.18392944335938 33.70646667480469 C-189.51443007742915 34.05093285838268 -190.8464419474393 34.39021347379901 -192.18392944335938 34.70646667480469 C-184.0294682307163 26.2994993772528 -174.6307935759632 19.79605351449493 -164.68392944335938 13.706466674804688 C-163.91862915039064 13.237731323242201 -163.15332885742185 12.768995971679715 -162.36483764648438 12.286056518554688 C-158.63823533065408 10.046229103036353 -155.27059887769934 8.341134448540629 -151.18392944335938 6.7064666748046875 C-169.6639294433594 6.376466674804647 -188.14392944335935 6.046466674804719 -207.18392944335938 5.7064666748046875 C-207.18392944335938 5.376466674804647 -207.18392944335938 5.046466674804719 -207.18392944335938 4.7064666748046875 C-206.453025970459 4.7050416564941315 -205.7221224975586 4.703616638183576 -204.9690704345703 4.7021484375 C-198.01273351197102 4.684169222864625 -191.05689281130736 4.642120889474654 -184.10087490081787 4.574376106262207 C-180.52634563710166 4.54037663047086 -176.95223142361579 4.515039053486248 -173.37753295898438 4.5109100341796875 C-151.80500166077707 4.490738835555362 -151.80500166077707 4.490738835555362 -131.18392944335938 -1.2935333251953125 C-127.03072265890808 -2.4009087805980016 -122.84284029978949 -3.240159948947735 -118.62142944335938 -4.0435333251953125 C-117.54731811523436 -4.253972778320303 -116.47320678710935 -4.464412231445294 -115.36654663085938 -4.6812286376953125 C-108.51805560142827 -5.978118965527756 -101.82815281790613 -6.905159905795131 -94.85580444335938 -7.1529083251953125 C-92.23908901017046 -7.217137532331321 -92.23908901017046 -7.217137532331321 -89.95346069335938 -7.7874298095703125 C-61.56073936941931 -12.97590929692285 -27.53071068684551 -6.9759868556524225 0 0 Z " fill="#DBF7F8" transform="translate(473.1839294433594,586.2935333251953)"/>
<path d="M0 0 C2.7581287055014627 1.961420276126887 5.399555502622661 4.01255210590142 8.02734375 6.14453125 C8.723437500000045 6.665312500000027 9.419531249999977 7.186093749999998 10.13671875 7.72265625 C20.477521029094532 15.912571655042825 27.22983755030623 27.690700874585048 31.02734375 40.14453125 C31.270976562499982 40.8754296875 31.514609374999964 41.606328125000005 31.765625 42.359375 C35.320717462703215 54.95939658549935 33.3112920495073 68.0768018884416 29.02734375 80.14453125 C25.55186892437996 77.93550204929295 22.530167329352935 75.9454718035272 19.96484375 72.70703125 C17.474816547771866 69.66582615144529 14.845804490510659 66.89072376639501 12.02734375 64.14453125 C11.181718749999959 63.19578124999998 10.336093750000032 62.24703125000002 9.46484375 61.26953125 C7.332933416732999 58.91769013493149 7.332933416732999 58.91769013493149 5.17578125 59.2265625 C2.193704868755617 60.50072240834987 0.467838724622311 62.38307580373606 -1.78515625 64.70703125 C-2.6681640624999545 65.61582031249998 -3.5511718750000227 66.52460937500001 -4.4609375 67.4609375 C-7.094372357738621 70.27457629823704 -9.625357341198537 73.15335139442095 -12.12890625 76.08203125 C-15.054371456195327 79.35458554845576 -18.203689052757795 82.39580003163258 -21.34765625 85.45703125 C-23.306538231985655 87.46255327917578 -25.11465471244128 89.46372735188231 -26.92578125 91.59375 C-32.5132868074636 98.03935838820075 -38.67342598106387 103.95008655271431 -44.72265625 109.95703125 C-45.96638012679762 111.19572834189796 -47.20987151305496 112.43465891363621 -48.453125 113.673828125 C-50.72220312063757 115.9347923039179 -52.992552402340436 118.19446123425644 -55.2646484375 120.452392578125 C-57.17028963641951 122.346866568432 -59.074446344227624 124.24262353272286 -60.97265625 126.14453125 C-69.21254966443234 122.40083538362546 -76.01224125981383 115.34239762162224 -82.6015625 109.27734375 C-84.04831855115731 107.975978339898 -85.52910086873038 106.70977638901064 -87.0625 105.51171875 C-96.57051942939046 98.01826977396559 -102.69976674092749 86.64485018795654 -105.97265625 75.14453125 C-106.19566406249999 74.4690625 -106.41867187499997 73.79359375000001 -106.6484375 73.09765625 C-111.27029057271614 56.87400872944545 -107.38227341183364 39.476454791203366 -99.65625 24.94921875 C-89.40450302236252 7.870902439225688 -73.99391704797046 -3.256887317758583 -54.91455078125 -8.417236328125 C-36.932435745725684 -12.751028201298368 -15.730372393896914 -9.81856358357561 0 0 Z " fill="#FDD05E" transform="translate(545.97265625,365.85546875)"/>
<path d="M0 0 C0.8078192138672193 0.002547912597606228 1.6156384277343818 0.005095825195326142 2.44793701171875 0.007720947265625 C7.17584130963462 0.025148806637389498 11.903408713852684 0.057801902158985285 16.631103515625 0.10540771484375 C18.362764797271097 0.12242324292651574 20.094467789986027 0.1350863408403029 21.826171875 0.14697265625 C44.00519253175702 0.3845474962552089 65.66903970955445 5.853164255387014 87.01708984375 11.44921875 C90.05693237606181 12.23692555859759 93.10675917878825 12.97642578862974 96.15966796875 13.71142578125 C102.38669744543381 15.219836648272803 108.49302090560593 16.970374102830874 114.59423828125 18.922607421875 C154.12648578431913 31.52178487661456 154.12648578431913 31.52178487661456 194.625 40.125 C196.26175080767894 40.39303347927921 197.89846766047162 40.66127436067927 199.53515625 40.9296875 C214.4606197073971 43.41101159465666 214.4606197073971 43.41101159465666 229.54296875 44.29296875 C230.27491958618157 44.29702224731443 231.00687042236336 44.30107574462886 231.76100158691406 44.30525207519531 C234.11154652662765 44.314629311195404 236.46193903025664 44.31465834808216 238.8125 44.3125 C239.61103393554686 44.3132250976563 240.4095678710937 44.313950195312486 241.2322998046875 44.314697265625 C253.7926393092547 44.31343574405571 266.15901382012726 43.76372118796451 278.625 42.125 C267.8125321650741 49.33331188995055 253.1653596170662 52.3501850273592 240.625 55.125 C239.6184033203125 55.356386718749945 238.611806640625 55.587773437500005 237.57470703125 55.826171875 C202.41130219064826 63.60396080722364 163.91043212807267 62.67508708051628 128.625 56.125 C126.45328373281995 55.75817359879625 124.28140891811483 55.39228458398952 122.109375 55.02734375 C111.3816735428228 53.13681288903342 100.98777579147043 50.54952418794119 90.625 47.1875 C89.16537841796878 46.720053710937464 89.16537841796878 46.720053710937464 87.67626953125 46.2431640625 C81.68251965253404 44.19335802065916 75.08168081640179 41.79557398521365 70.625 37.125 C70.2734375 34.562744140625 70.2734375 34.562744140625 70.625 32.125 C74.71974811154712 27.465459045480884 80.90031845747365 26.009833852880888 86.625 24.125 C86.625 23.465000000000032 86.625 22.80499999999995 86.625 22.125 C84.86156249999999 21.444375000000036 84.86156249999999 21.444375000000036 83.0625 20.75 C82.40121093749997 20.494765625000014 81.739921875 20.239531250000027 81.05859375 19.9765625 C73.47888387885001 17.3242723685222 66.86892193863412 16.782995127950244 58.8837890625 16.809326171875 C56.89382450172252 16.812470257836367 54.90387835892943 16.788201163201848 52.9140625 16.763671875 C43.05449731354304 16.758732213082908 34.02988604271786 17.63307265802314 25.5 22.9375 C21.14150279950286 25.20555810433393 18.769783487742302 25.4237201395822 14.11328125 23.9921875 C12.881582031249991 23.562929687499945 12.881582031249991 23.562929687499945 11.625 23.125 C2.98784995976456 20.480245091127927 -5.666063126646691 18.31231606306244 -14.5 16.4375 C-15.48879150390627 16.223112792968777 -16.477583007812484 16.008725585937555 -17.496337890625 15.787841796875 C-18.469499511718766 15.585861816406236 -19.442661132812532 15.383881835937473 -20.4453125 15.17578125 C-21.298833007812505 14.997004394531245 -22.15235351562501 14.818227539062491 -23.03173828125 14.634033203125 C-32.30081902378117 13.222755756931178 -41.5618060499059 12.982425165276823 -50.921875 13.02734375 C-52.62769744873049 13.02946617126463 -52.62769744873049 13.02946617126463 -54.36798095703125 13.031631469726563 C-57.95368223083369 13.037170578649693 -61.53931801710797 13.049711228459387 -65.125 13.0625 C-67.5755199232267 13.06752288532266 -70.02604083797075 13.07208440225179 -72.4765625 13.076171875 C-78.44273018411889 13.087119964263366 -84.40886041099259 13.103796077183574 -90.375 13.125 C-78.07120405402355 6.804411672511947 -62.53611451981317 4.933003258357985 -49 2.8125 C-48.005327148437516 2.653461914062518 -47.01065429687503 2.4944238281250364 -45.98583984375 2.33056640625 C-30.758888860740967 0.08469614119155722 -15.362485306356575 -0.05848307297719657 0 0 Z " fill="#4BA8C2" transform="translate(396.375,600.875)"/>
<path d="M0 0 C86.46000000000004 0 172.92000000000007 0 262 0 C262.3299999999999 0.6599999999999682 262.6600000000001 1.32000000000005 263 2 C238.53495440690403 16.95398285218789 212.45972062411556 26.596404577578028 184.0126953125 30.70751953125 C182.06511267777842 30.990537968464537 180.12222219932687 31.305282893974436 178.1796875 31.62109375 C122.40259462096606 39.868610743553745 68.26379738202536 22.076332013368983 15.813125610351563 5.41058349609375 C10.574408987331992 3.756400978852639 5.3452284634486205 2.2704328214182397 0 1 C0 0.6699999999999591 0 0.34000000000003183 0 0 Z " fill="#46A4BF" transform="translate(492,591)"/>
<path d="M0 0 C1.281328125000016 -0.024492187499959073 2.562656250000032 -0.04898437500003183 3.8828125 -0.07421875 C13.51663720721001 -0.1035305898799379 23.05380079548894 0.9108671969926263 31.25 6.375 C30.920000000000016 7.365000000000009 30.590000000000032 8.355000000000018 30.25 9.375 C27.37890625 10.69140625 27.37890625 10.69140625 23.8125 11.9375 C19.10136435689111 13.466607090594152 19.10136435689111 13.466607090594152 15.25 16.375 C14.414581457582074 18.742573267421562 14.414581457582074 18.742573267421562 15.25 21.375 C20.661448041865242 25.986261304201093 27.53767229723701 28.206791525580797 34.1875 30.375 C35.760236816406234 30.889819335937545 35.760236816406234 30.889819335937545 37.36474609375 31.4150390625 C66.19071246230715 40.538755676993446 97.12469901138888 43.9059349107813 127.25 44.375 C120.19806547310372 51.426934526896275 105.78205487204195 52.53283311361304 96.25 54.375 C95.33468505859378 54.553696289062486 94.41937011718755 54.73239257812497 93.476318359375 54.91650390625 C89.80156792762114 55.43872723661957 86.19513005486272 55.536403439846026 82.4921875 55.54296875 C81.38795440673834 55.54952484130854 81.38795440673834 55.54952484130854 80.26141357421875 55.55621337890625 C46.39354197379981 55.701355039767805 14.653487326468621 52.125391109986026 -16.75 38.375 C-17.429658203124973 38.08657226562502 -18.109316406250002 37.798144531250045 -18.8095703125 37.5009765625 C-27.34384784178343 33.83487338325392 -36.16589006035656 29.033207917225354 -41.75 21.375 C-42.37688091017344 17.304816699163666 -42.25235473037429 15.234584760862617 -40.16796875 11.66796875 C-37.32526979471578 8.972226768171481 -34.58032658407882 7.409648327739319 -31.0625 5.6875 C-29.903632812500007 5.10613281250005 -28.744765625000014 4.524765624999986 -27.55078125 3.92578125 C-18.612449902450805 0.04198864879037956 -9.63430100651209 0.009576839966712214 0 0 Z " fill="#B2ECEE" transform="translate(452.75,616.625)"/>
<path d="M0 0 C2.7581287055014627 1.961420276126887 5.399555502622661 4.01255210590142 8.02734375 6.14453125 C8.723437500000045 6.665312500000027 9.419531249999977 7.186093749999998 10.13671875 7.72265625 C20.477521029094532 15.912571655042825 27.22983755030623 27.690700874585048 31.02734375 40.14453125 C31.270976562499982 40.8754296875 31.514609374999964 41.606328125000005 31.765625 42.359375 C35.320717462703215 54.95939658549935 33.3112920495073 68.0768018884416 29.02734375 80.14453125 C26.057343749999973 78.16453124999998 26.057343749999973 78.16453124999998 23.02734375 76.14453125 C23.171718749999968 75.63148437500001 23.316093749999936 75.11843750000003 23.46484375 74.58984375 C27.317974481036345 58.695679484475306 26.00656622351289 41.92467932833381 17.6796875 27.734375 C7.74761401913247 12.167082522895669 -6.152023966297406 2.7319554337886984 -23.97265625 -1.85546875 C-28.283016816535564 -2.3782673733749675 -32.50983124437664 -2.4305533073367656 -36.84765625 -2.35546875 C-37.98952392578127 -2.3412084960937705 -39.131391601562484 -2.326948242187484 -40.307861328125 -2.312255859375 C-56.76989451482598 -1.9005584138080849 -71.27317190934457 3.5800928954521964 -83.41015625 14.95703125 C-97.43548822459843 30.3573957711277 -101.00738406455145 46.26762193259168 -100.18603515625 66.4599609375 C-99.1586414431635 79.38584339642381 -91.1262669365907 90.5953270174926 -82.72265625 100.01953125 C-80.22969697293553 102.45061822928483 -80.22969697293553 102.45061822928483 -77.565673828125 101.89599609375 C-75.12951889423442 101.18999054940247 -73.00827948545685 100.36121922821116 -70.734375 99.24609375 C-69.92540771484374 98.85389648437501 -69.11644042968749 98.46169921875003 -68.282958984375 98.0576171875 C-67.41743408203126 97.63254882812498 -66.55190917968753 97.20748046875002 -65.66015625 96.76953125 C-63.79085143913278 95.8700812279248 -61.921038189823605 94.97168729941217 -60.05078125 94.07421875 C-56.93534806536826 92.57370355386098 -53.821002436612105 91.07106400766759 -50.708984375 89.5634765625 C-47.44990483199575 87.9915516326538 -44.18122443565653 86.4413250789072 -40.91015625 84.89453125 C-39.88172607421876 84.39260253906252 -38.85329589843752 83.89067382812499 -37.793701171875 83.37353515625 C-36.83052978515627 82.92155761718749 -35.86735839843749 82.46958007812498 -34.875 82.00390625 C-33.598707275390666 81.39240722656251 -33.598707275390666 81.39240722656251 -32.296630859375 80.7685546875 C-29.97265625 80.14453125 -29.97265625 80.14453125 -27.916259765625 80.7783203125 C-25.6694764973455 82.35764441365461 -23.844022914094126 84.13949553847056 -21.97265625 86.14453125 C-29.72541050929692 94.75859475629045 -37.74672362015838 103.04545858906624 -45.97265625 111.20703125 C-47.101801581897405 112.3311401063163 -48.2307087484848 113.4554882468289 -49.359375 114.580078125 C-51.408700990857426 116.62134322119846 -53.45930524736798 118.66130225953907 -55.51171875 120.699462890625 C-57.335299820172395 122.51128475746788 -59.1566652595439 124.32511242420117 -60.97265625 126.14453125 C-69.21254966443234 122.40083538362546 -76.01224125981383 115.34239762162224 -82.6015625 109.27734375 C-84.04831855115731 107.975978339898 -85.52910086873038 106.70977638901064 -87.0625 105.51171875 C-96.57051942939046 98.01826977396559 -102.69976674092749 86.64485018795654 -105.97265625 75.14453125 C-106.19566406249999 74.4690625 -106.41867187499997 73.79359375000001 -106.6484375 73.09765625 C-111.27029057271614 56.87400872944545 -107.38227341183364 39.476454791203366 -99.65625 24.94921875 C-89.40450302236252 7.870902439225688 -73.99391704797046 -3.256887317758583 -54.91455078125 -8.417236328125 C-36.932435745725684 -12.751028201298368 -15.730372393896914 -9.81856358357561 0 0 Z " fill="#116062" transform="translate(545.97265625,365.85546875)"/>
<path d="M0 0 C2.7581287055014627 1.961420276126887 5.399555502622661 4.01255210590142 8.02734375 6.14453125 C8.723437500000045 6.665312500000027 9.419531249999977 7.186093749999998 10.13671875 7.72265625 C20.477521029094532 15.912571655042825 27.22983755030623 27.69070087458499 31.02734375 40.14453125 C31.270976562499982 40.8754296875 31.514609374999964 41.606328125000005 31.765625 42.359375 C35.320717462703215 54.95939658549935 33.3112920495073 68.0768018884416 29.02734375 80.14453125 C26.057343749999973 78.16453124999998 26.057343749999973 78.16453124999998 23.02734375 76.14453125 C23.171718749999968 75.63148437500001 23.316093749999936 75.11843750000003 23.46484375 74.58984375 C27.317974481036345 58.69567948447525 26.00656622351289 41.92467932833381 17.6796875 27.734375 C7.74761401913247 12.167082522895669 -6.152023966297406 2.7319554337886984 -23.97265625 -1.85546875 C-28.283016816535564 -2.3782673733749675 -32.50983124437664 -2.4305533073367656 -36.84765625 -2.35546875 C-37.98952392578127 -2.3412084960937705 -39.131391601562484 -2.326948242187484 -40.307861328125 -2.312255859375 C-56.76989451482598 -1.9005584138080849 -71.27317190934457 3.5800928954521964 -83.41015625 14.95703125 C-90.71286788354104 22.97569500447645 -95.86735121680988 31.766274954864514 -98.97265625 42.14453125 C-99.63265625000003 40.82453125000001 -100.29265625 39.504531250000014 -100.97265625 38.14453125 C-104.06434714549937 40.67409652813586 -104.88196957389397 43.369077371171386 -105.97265625 47.14453125 C-108.29441390888866 41.23856020520196 -104.32290989553394 34.60712573801078 -101.97265625 29.14453125 C-92.99019664021012 12.002263034287125 -78.09427258111936 -1.1410477172039464 -59.6435546875 -7.05224609375 C-40.12762741607753 -12.817372206043842 -17.51122010556628 -10.930130814906647 0 0 Z " fill="#1A6767" transform="translate(545.97265625,365.85546875)"/>
<path d="M0 0 C0 3.6085783958035904 -0.7802871298573564 4.440716226417294 -2.875 7.3125 C-3.502773437499968 8.1826171875 -4.13054687500005 9.052734375 -4.77734375 9.94921875 C-5.510820312499959 10.955976562499984 -6.244296875000032 11.962734375000025 -7 13 C-8.359285830808517 14.899158373502189 -9.714128363175973 16.801439669477645 -11.06884765625 18.703857421875 C-13.041298956353671 21.47253727926278 -15.020730652740781 24.23619129376675 -17 27 C-21.223952482469258 25.638866450482737 -23.428936263754736 23.84515115165169 -26.3125 20.5 C-27.009882812499995 19.705937500000005 -27.70726562499999 18.91187500000001 -28.42578125 18.09375 C-30 16 -30 16 -30 14 C-25.93878979522026 12.038983678529462 -21.875811566711718 10.081658021656267 -17.8125 8.125 C-16.086767578124977 7.2916210937499955 -16.086767578124977 7.2916210937499955 -14.326171875 6.44140625 C-13.21435546875 5.906445312500011 -12.1025390625 5.371484375000023 -10.95703125 4.8203125 C-9.93585205078125 4.328051757812489 -8.9146728515625 3.8357910156249773 -7.862548828125 3.32861328125 C-5.270090453029411 2.125358826898605 -2.664662850778086 1.0316204771687012 0 0 Z " fill="#1B6466" transform="translate(645,472)"/>
<path d="M0 0 C3.0741314606240167 0.0708919204756171 6.008536247914094 0.26143257275322185 9 1 C11.222982443952901 3.6397916521940488 11.914254553418345 5.74276366025498 13 9 C13.886875000000032 8.876250000000027 14.77374999999995 8.752499999999998 15.6875 8.625 C19 9 19 9 21.8125 11.6875 C23.802556811996965 14.701014601023985 24.687966575493874 16.463621188930006 25 20 C24.340000000000032 20 23.67999999999995 20 23 20 C23.659999999999968 22.310000000000002 24.32000000000005 24.620000000000005 25 27 C25.659999999999968 27 26.32000000000005 27 27 27 C27 29.970000000000027 27 32.94 27 36 C24.923749433593912 32.885624150390925 23.42093430534362 29.75381622953188 21.8125 26.375 C16.874811615244994 16.37245591777122 11.030666329764358 9.626734597502377 2.16015625 2.75 C1.4473046875000364 2.1725000000000136 0.7344531249999591 1.5950000000000273 0 1 C0 0.6700000000000159 0 0.339999999999975 0 0 Z " fill="#1C605E" transform="translate(544,372)"/>
<path d="M0 0 C0 3 0 3 -1.92578125 5.10546875 C-2.382915039062482 5.53520996093755 -2.8400488281250205 5.964951171874986 -3.31103515625 6.40771484375 C-5.382452924247843 8.36056056258235 -7.364269294134033 10.391230173109761 -9.35546875 12.42578125 C-10.966026407803895 14.054805580374932 -12.576706532401943 15.683708840026497 -14.1875 17.3125 C-15.006699218749986 18.148457031250018 -15.825898437499973 18.984414062500036 -16.669921875 19.845703125 C-17.453027343750023 20.63525390625 -18.23613281249999 21.4248046875 -19.04296875 22.23828125 C-19.75477294921876 22.960559082031295 -20.466577148437523 23.682836914062477 -21.199951171875 24.427001953125 C-23 26 -23 26 -25 26 C-25 26.659999999999968 -25 27.32000000000005 -25 28 C-6.189999999999998 28 12.620000000000005 28 32 28 C32 28.33000000000004 32 28.659999999999968 32 29 C11.870000000000005 29 -8.259999999999991 29 -29 29 C-25.41592440902849 24.818578477199935 -22.003533974370043 20.87624956586103 -18.14453125 17.01171875 C-17.275058593749975 16.140957031249968 -16.405585937500007 15.27019531250005 -15.509765625 14.373046875 C-14.61966796874998 13.48681640625 -13.729570312500016 12.6005859375 -12.8125 11.6875 C-11.910800781249975 10.781933593749955 -11.009101562500007 9.876367187500023 -10.080078125 8.943359375 C-9.214472656249995 8.079042968749945 -8.348867187499991 7.2147265625000045 -7.45703125 6.32421875 C-6.6730395507812545 5.541354980468782 -5.889047851562509 4.75849121093745 -5.081298828125 3.951904296875 C-3 2 -3 2 0 0 Z " fill="#1F5E61" transform="translate(295,562)"/>
<path d="M0 0 C5.78942102712665 -0.47140323885003 9.21100685919862 0.7632648107764339 13.875 4 C14.477797851562514 4.403557128906243 15.080595703125027 4.807114257812486 15.70166015625 5.222900390625 C20.79123788875438 8.699488115830434 25.847538515163933 12.41910994926809 30 17 C30 17.660000000000025 30 18.319999999999993 30 19 C27.75 19.3125 27.75 19.3125 25 19 C21 14.891891891891873 21 14.891891891891873 21 12 C20.39671874999999 11.902031249999993 19.793437499999982 11.804062499999986 19.171875 11.703125 C13.993818740324173 10.734327377221916 11.69604948623271 9.811551032677414 8 6 C5.060791735107728 4.782181190944982 2.0602218521954683 3.8631394967730444 -1 3 C-0.6699999999999591 2.009999999999991 -0.34000000000003183 1.0199999999999818 0 0 Z " fill="#0C6063" transform="translate(532,362)"/>
<path d="M0 0 C5.262302624756558 4.624108476647734 6.817656234876608 10.514660401170318 9 17 C9.251367187500023 17.743789062500014 9.502734375000045 18.487578125000027 9.76171875 19.25390625 C11.871489906124452 26.89995632645099 11.162371396881099 35.14302851758697 11 43 C10.669999999999959 43 10.340000000000032 43 10 43 C10 37.72000000000003 10 32.44 10 27 C9.340000000000032 27 8.67999999999995 27 8 27 C7.597812500000032 26.102812500000027 7.597812500000032 26.102812500000027 7.1875 25.1875 C6.155385592655193 22.96792308140897 6.155385592655193 22.96792308140897 4.4375 21.6875 C2.45230419282575 19.357052748099818 2.6951616878973255 17.82418334396914 2.8125 14.8125 C2.8395703124999727 13.911445312500007 2.8666406249999454 13.010390625000014 2.89453125 12.08203125 C2.9293359375000136 11.394960937500002 2.9641406250000273 10.707890625000005 3 10 C2.340000000000032 10 1.67999999999995 10 1 10 C-1.5668736680793245 6.1496894978809 -0.8328872393764186 4.414302368695246 0 0 Z " fill="#2A6F73" transform="translate(568,389)"/>
<path d="M0 0 C3.439563426252562 0.48968055639613794 6.842589859752991 0.34729909296902406 10.30859375 0.26171875 C12.27734375 0.32421875 12.27734375 0.32421875 13.27734375 1.32421875 C15.460271488226113 1.5590356780163575 17.649375493351783 1.737851975276385 19.83984375 1.88671875 C21.636152343749984 2.0124023437499545 21.636152343749984 2.0124023437499545 23.46875 2.140625 C24.395585937500016 2.2012109375000364 25.322421875000032 2.261796874999959 26.27734375 2.32421875 C26.27734375 2.654218750000041 26.27734375 2.984218749999968 26.27734375 3.32421875 C10.437343749999968 3.654218750000041 -5.402656250000007 3.984218749999968 -21.72265625 4.32421875 C-14.643034700325813 0.7844079751629351 -7.895420750058975 -1.3278013196302254 0 0 Z " fill="#73BAD1" transform="translate(327.72265625,609.67578125)"/>
<path d="M0 0 C2.6399999999999864 0.3299999999999841 5.279999999999973 0.660000000000025 8 1 C8 2.319999999999993 8 3.6399999999999864 8 5 C10.970000000000027 5.990000000000009 13.940000000000055 6.980000000000018 17 8 C17 8.660000000000025 17 9.319999999999993 17 10 C17.99000000000001 10.329999999999984 18.980000000000018 10.660000000000025 20 11 C19.340000000000032 11.329999999999984 18.67999999999995 11.660000000000025 18 12 C16.13852935265686 11.06926467632843 14.278616620489402 10.135309212612697 12.42578125 9.1875 C0.89530063269126 3.54294910199377 -10.387822532757014 3.2055947985104467 -23 3 C-23 2.670000000000016 -23 2.339999999999975 -23 2 C-15.410000000000025 2 -7.82000000000005 2 0 2 C0 1.339999999999975 0 0.6800000000000068 0 0 Z " fill="#336D5C" transform="translate(524,360)"/>
<path d="M0 0 C1.1137499999999818 -0.005800781250002274 1.1137499999999818 -0.005800781250002274 2.25 -0.01171875 C6.484852204288018 -0.004236678967686203 10.454098974245767 0.290819794849142 14.625 1.125 C14.625 1.454999999999984 14.625 1.785000000000025 14.625 2.125 C12.975000000000023 2.125 11.325000000000045 2.125 9.625 2.125 C9.294999999999959 2.785000000000025 8.965000000000032 3.444999999999993 8.625 4.125 C6.500068590957312 4.151935750255461 4.375040877485901 4.171366284010389 2.25 4.1875 C1.066640624999991 4.1991015625000045 -0.11671875000001819 4.210703125000009 -1.3359375 4.22265625 C-4.375 4.125 -4.375 4.125 -6.375 3.125 C-7.915239960655072 3.055494586613065 -9.45834987720525 3.0404764268172357 -11 3.0625 C-11.817265625000005 3.071523437499991 -12.634531250000009 3.080546874999982 -13.4765625 3.08984375 C-14.103046875000018 3.1014453125000045 -14.72953124999998 3.113046875000009 -15.375 3.125 C-10.382072747822406 -0.20361816811839617 -5.87851111043318 -0.030301603662053367 0 0 Z " fill="#1A6867" transform="translate(506.375,355.875)"/>
<path d="M0 0 C0.3299999999999841 0.660000000000025 0.660000000000025 1.3199999999999932 1 2 C0.6700000000000159 2.660000000000025 0.339999999999975 3.319999999999993 0 4 C-1.3199999999999932 4 -2.6399999999999864 4 -4 4 C-4.329999999999984 4.990000000000009 -4.660000000000025 5.980000000000018 -5 7 C-8.0625 8.6875 -8.0625 8.6875 -11 10 C-11 8.350000000000023 -11 6.699999999999989 -11 5 C-11.990000000000009 5.660000000000025 -12.980000000000018 6.319999999999993 -14 7 C-16.1875 6.625 -16.1875 6.625 -18 6 C-16.253187072164735 5.0151589182722205 -14.502414899271344 4.037338131139165 -12.75 3.0625 C-11.288203124999995 2.2445898437500205 -11.288203124999995 2.2445898437500205 -9.796875 1.41015625 C-5.912871720541943 -0.548119146486556 -4.179240406097392 -1.3930801353657785 0 0 Z " fill="#15645F" transform="translate(487,361)"/>
<path d="M0 0 C1.9800000000000182 0 3.9599999999999795 0 6 0 C2.7327920947799385 4.3889492860122346 -0.5489847820278442 8.752596654803483 -4 13 C-4 12.339999999999975 -4 11.680000000000007 -4 11 C-5.319999999999993 10.670000000000016 -6.639999999999986 10.339999999999975 -8 10 C-7.875 8.25 -7.875 8.25 -7 6 C-5.038521260902712 4.61061922647275 -3.038334244397902 3.2739589027486886 -1 2 C-0.6700000000000159 1.339999999999975 -0.339999999999975 0.6800000000000068 0 0 Z " fill="#16625B" transform="translate(456,381)"/>
<path d="M0 0 C0.9829580131063267 3.4770714310484436 0.7424837959287629 5.457006852984307 0 9 C-0.6984503442791947 20.530155683429086 0.21547532070059106 30.026398319461236 4 41 C4.350732562896212 42.32886250538314 4.692614576891572 43.66044668245371 5 45 C-0.07838167583270206 40.53277027369444 -1.6806821281530233 33.9596911743086 -2.20849609375 27.41455078125 C-2.327267583104117 24.523442249250593 -2.3723522507352754 21.643508537388925 -2.375 18.75 C-2.3765307617187545 17.815671386718748 -2.378061523437509 16.881342773437495 -2.379638671875 15.918701171875 C-2.2902767815423886 10.301882020298933 -1.581873340138884 5.391024343193294 0 0 Z " fill="#D8D07D" transform="translate(447,405)"/>
<path d="M0 0 C1.69140625 0.9765625 1.69140625 0.9765625 2.69140625 2.9765625 C2.0172265625000136 2.9958984374999886 1.3430468750000273 3.0152343749999773 0.6484375 3.03515625 C-3.866884998718774 4.472663148535332 -6.411162735725156 7.6572299278032006 -9.62109375 11.0390625 C-10.266269531250032 11.702285156250014 -10.91144531249995 12.365507812500027 -11.576171875 13.048828125 C-13.163063931912347 14.682739205820894 -14.739857025735091 16.32524396801915 -16.30859375 17.9765625 C-17.29859375000001 17.646562500000016 -18.288593750000018 17.316562499999975 -19.30859375 16.9765625 C-18.60863281249999 16.283046875000025 -17.908671874999982 15.589531249999993 -17.1875 14.875 C-15.200677793126374 12.891676951645024 -13.258971211063454 10.873266029089336 -11.3359375 8.828125 C-10.306105282099224 7.752493382319642 -9.276156215033325 6.6769736270159115 -8.24609375 5.6015625 C-7.729824218749968 5.043398437500002 -7.21355468750005 4.4852343750000045 -6.681640625 3.91015625 C-2.8639895820404035 -0.029076036365893287 -2.8639895820404035 -0.029076036365893287 0 0 Z " fill="#FEF6DA" transform="translate(552.30859375,424.0234375)"/>
<path d="M0 0 C0.660000000000025 0.3299999999999841 1.3199999999999932 0.660000000000025 2 1 C0.2147943880341927 3.006117343212452 -1.5775871167754758 5.0048716996207645 -3.375 7 C-3.882890625000016 7.572343750000016 -4.390781249999975 8.144687499999975 -4.9140625 8.734375 C-6.2350490539606085 10.194412770166991 -7.6140079881282645 11.60152157360693 -9 13 C-9.660000000000025 13 -10.319999999999993 13 -11 13 C-11.247500000000002 13.639374999999973 -11.495000000000005 14.278750000000002 -11.75 14.9375 C-13 17 -13 17 -15.078125 17.62890625 C-15.712343750000002 17.751367187500023 -16.346562500000005 17.87382812499999 -17 18 C-12.30677875135035 10.910661573769687 -6.377016592137863 5.537338250824348 0 0 Z " fill="#256F6E" transform="translate(467,368)"/>
<path d="M0 0 C0.3300000000000409 0.660000000000025 0.6599999999999682 1.3199999999999932 1 2 C2.32000000000005 2 3.6399999999999864 2 5 2 C5 3.6499999999999773 5 5.300000000000011 5 7 C4.340000000000032 7 3.67999999999995 7 3 7 C3.023203125000009 7.903632812500007 3.046406250000018 8.807265625000014 3.0703125 9.73828125 C3.088359374999982 10.917773437499989 3.1064062499999636 12.097265624999977 3.125 13.3125 C3.148203125000009 14.484257812500005 3.171406250000018 15.656015625000009 3.1953125 16.86328125 C3 20 3 20 1 23 C0.6699999999999591 15.410000000000025 0.34000000000003183 7.819999999999993 0 0 Z " fill="#266158" transform="translate(571,409)"/>
<path d="M0 0 C2.9700000000000273 0 5.939999999999998 0 9 0 C7.019999999999982 0.9900000000000091 7.019999999999982 0.9900000000000091 5 2 C7.956645192571273 3.4783225962856363 10.742297369640823 3.0603278264881055 14 3 C14 3.329999999999984 14 3.660000000000025 14 4 C8.060000000000002 5.319999999999993 2.1200000000000045 6.639999999999986 -4 8 C-4 7.339999999999975 -4 6.680000000000007 -4 6 C-2.680000000000007 6 -1.3600000000000136 6 0 6 C-0.18562500000001592 5.381250000000023 -0.371249999999975 4.762499999999989 -0.5625 4.125 C-1 2 -1 2 0 0 Z " fill="#1E6758" transform="translate(487,359)"/>
<path d="M0 0 C0.3299999999999841 0.6599999999999682 0.660000000000025 1.32000000000005 1 2 C-2.8636429465204287 6.487170338466058 -6.7479020781571535 10.876753530334213 -11 15 C-10.670000000000016 15.659999999999968 -10.339999999999975 16.32000000000005 -10 17 C-11.980000000000018 17.33000000000004 -13.95999999999998 17.659999999999968 -16 18 C-12.785726756078077 14.236948397359697 -9.561617597522059 10.483028729067883 -6.3125 6.75 C-5.751757812499989 6.10546875 -5.191015624999977 5.4609375 -4.61328125 4.796875 C-3.125229394748601 3.139480681802297 -1.591387653301524 1.5577329295156233 0 0 Z " fill="#D7EDEE" transform="translate(450,528)"/>
<path d="M0 0 C2.0374763045834925 0.22858113666381996 4.08040303081566 0.4102427788905061 6.125 0.5625 C7.7685546875 0.6881835937500114 7.7685546875 0.6881835937500114 9.4453125 0.81640625 C10.288359375000027 0.8769921874999795 11.131406250000055 0.9375781250000159 12 1 C12 1.329999999999984 12 1.660000000000025 12 2 C1.6050000000000182 2.990000000000009 1.6050000000000182 2.990000000000009 -9 4 C-9.660000000000025 3.009999999999991 -10.319999999999993 2.019999999999982 -11 1 C-9.543732798732549 0.6374314169684112 -8.084888150257257 0.285202067332591 -6.625 -0.0625 C-5.406835937499977 -0.3583398437500023 -5.406835937499977 -0.3583398437500023 -4.1640625 -0.66015625 C-2 -1 -2 -1 0 0 Z " fill="#105F62" transform="translate(502,359)"/>
<path d="M0 0 C6.230589346533179 5.672626121470557 9.44379102091034 13.656865313654635 10 22 C9.340000000000032 22 8.67999999999995 22 8 22 C7.806640625 21.324531250000007 7.61328125 20.649062500000014 7.4140625 19.953125 C7.153671874999986 19.061093749999998 6.893281249999973 18.169062499999995 6.625 17.25 C6.242148437499964 15.927421874999993 6.242148437499964 15.927421874999993 5.8515625 14.578125 C5.081215693360491 12.021376682176367 5.081215693360491 12.021376682176367 3.8984375 9.859375 C3 8 3 8 3 5 C2.009999999999991 4.670000000000016 1.0199999999999818 4.339999999999975 0 4 C0 2.680000000000007 0 1.3600000000000136 0 0 Z " fill="#CFC774" transform="translate(561,390)"/>
<path d="M0 0 C1.2731031207561045 0.9344153546642247 2.543387998297135 1.8726711122524762 3.8125 2.8125 C4.52019531250005 3.3345703124999773 5.227890624999986 3.8566406250000114 5.95703125 4.39453125 C7.799612073752314 5.842524975740332 9.463648686497322 7.231015049121538 11 9 C11 9.660000000000025 11 10.319999999999993 11 11 C8.75 11.3125 8.75 11.3125 6 11 C2 6.8918918918918735 2 6.8918918918918735 2 4 C1.009999999999991 3.339999999999975 0.01999999999998181 2.680000000000007 -1 2 C-0.6699999999999591 1.339999999999975 -0.34000000000003183 0.6800000000000068 0 0 Z " fill="#256A6C" transform="translate(551,370)"/>
<path d="M0 0 C2.6218749382644546 1.0487499753057818 3.7937136071088844 1.6493131320851262 5.25 4.125 C5.497500000000002 4.743749999999977 5.7450000000000045 5.362500000000011 6 6 C7.649999999999977 4.680000000000007 9.300000000000011 3.3600000000000136 11 2 C11.990000000000009 3.319999999999993 12.980000000000018 4.639999999999986 14 6 C13.009999999999991 6 12.019999999999982 6 11 6 C11 7.649999999999977 11 9.300000000000011 11 11 C7.584241000578231 9.556615113076191 5.639737372045772 7.751058316233355 3.25 4.9375 C2.636406249999993 4.2246484374999795 2.0228124999999864 3.511796875000016 1.390625 2.77734375 C0 1 0 1 0 0 Z " fill="#246468" transform="translate(450,461)"/>
<path d="M0 0 C2.9700000000000273 0.3299999999999841 5.940000000000055 0.660000000000025 9 1 C9.990000000000009 3.9700000000000273 10.980000000000018 6.939999999999998 12 10 C3.428571428571445 3.7142857142857224 3.428571428571445 3.7142857142857224 0 0 Z " fill="#27644E" transform="translate(544,372)"/>
<path d="M0 0 C0.8121093749999773 0.33837890625 0.8121093749999773 0.33837890625 1.640625 0.68359375 C0.6506249999999909 0.68359375 -0.3393750000000182 0.68359375 -1.359375 0.68359375 C-2.8823702261394715 3.620798828983311 -4.160378016370657 6.600458649238874 -5.359375 9.68359375 C-5.689374999999984 9.68359375 -6.019375000000025 9.68359375 -6.359375 9.68359375 C-6.359375 8.033593750000023 -6.359375 6.383593749999989 -6.359375 4.68359375 C-7.349375000000009 5.343593750000025 -8.339375000000018 6.003593749999993 -9.359375 6.68359375 C-11.546875 6.30859375 -11.546875 6.30859375 -13.359375 5.68359375 C-11.618149506042585 4.647864792387395 -9.866009054272865 3.6304685534369128 -8.109375 2.62109375 C-6.6475781249999955 1.7683789062500068 -6.6475781249999955 1.7683789062500068 -5.15625 0.8984375 C-2.359375 -0.31640625 -2.359375 -0.31640625 0 0 Z " fill="#337371" transform="translate(482.359375,361.31640625)"/>
<path d="M0 0 C0.7541015625000114 0.0032226562499886313 1.5082031250000227 0.006445312499977263 2.28515625 0.009765625 C3.0624609375000205 0.018144531250015916 3.839765624999984 0.02652343749997499 4.640625 0.03515625 C5.433398437499989 0.03966796874999545 6.226171874999977 0.044179687499990905 7.04296875 0.048828125 C8.992220082972835 0.06057060290947902 10.941432380831202 0.07850479413480116 12.890625 0.09765625 C12.890625 0.4276562499999841 12.890625 0.757656250000025 12.890625 1.09765625 C11.975390625000045 1.1582421874999795 11.060156249999977 1.218828125000016 10.1171875 1.28125 C8.92867187500002 1.3650390624999886 7.740156249999984 1.4488281249999773 6.515625 1.53515625 C5.332265624999991 1.616367187499975 4.148906249999982 1.6975781250000068 2.9296875 1.78125 C-0.02456401495544469 1.908505606088795 -0.02456401495544469 1.908505606088795 -2.109375 3.09765625 C-3.6496149606550716 3.167161663386935 -5.192724877205251 3.1821798231827643 -6.734375 3.16015625 C-7.960273437500007 3.1466210937500136 -7.960273437500007 3.1466210937500136 -9.2109375 3.1328125 C-10.150664062500027 3.115410156249993 -10.150664062500027 3.115410156249993 -11.109375 3.09765625 C-7.306951235858833 0.5627070739058695 -4.5084720174296535 -0.03415509104115699 0 0 Z " fill="#5C9293" transform="translate(502.109375,355.90234375)"/>
<path d="M0 0 C-0.9900000000000091 0.49500000000000455 -0.9900000000000091 0.49500000000000455 -2 1 C-2 1.6599999999999682 -2 2.32000000000005 -2 3 C-6.949999999999989 3.330000000000041 -11.899999999999977 3.659999999999968 -17 4 C-11.519378777808583 1.2596893889042349 -6.188790327001186 -0.3867993954376061 0 0 Z " fill="#66A8BA" transform="translate(323,610)"/>
<path d="M0 0 C4 2.6666666666666856 8 5.333333333333314 12 8 C11.625 9.9375 11.625 9.9375 11 12 C10.009999999999991 12.495000000000005 10.009999999999991 12.495000000000005 9 13 C9 11.680000000000007 9 10.360000000000014 9 9 C7.024921015297423 7.053999432710725 7.024921015297423 7.053999432710725 4.5 5.375 C2.96884038273879 4.292791505083926 1.4601635795311836 3.176242883511236 0 2 C0 1.339999999999975 0 0.6800000000000068 0 0 Z " fill="#346F72" transform="translate(469,486)"/>
<path d="M0 0 C1.6499999999999773 0.3299999999999841 3.3000000000000114 0.660000000000025 5 1 C2.4221515364900483 3.6475200436048 0.08351902318503335 5.944320651209978 -3 8 C-2.4527631652248942 4.625372852220153 -1.9451000030854857 2.9176500046282285 0 0 Z " fill="#1E6458" transform="translate(465,373)"/>
<path d="M0 0 C0.3299999999999841 0 0.660000000000025 0 1 0 C1.646656627069433 2.24976352115317 2.2922952328408996 4.499819673252944 2.9375 6.75 C3.2971484375000273 8.00296874999998 3.6567968749999977 9.255937500000016 4.02734375 10.546875 C4.72554149441612 13.025617193027529 5.399437258249122 15.49660162385959 6 18 C2.916571313839313 15.448196949384226 1.983152149291584 12.754672215753487 0.75 9 C0.3942187499999932 7.9481250000000045 0.03843749999998636 6.896250000000009 -0.328125 5.8125 C-1 3 -1 3 0 0 Z " fill="#D0C474" transform="translate(446,432)"/>
<path d="M0 0 C4.615131119322655 1.3186088912350442 8.098976120569318 3.213554371835187 12 6 C8.884075012791413 7.038641662402824 7.973734395799852 7.090369278459946 5 6 C4.669999999999959 5.339999999999975 4.340000000000032 4.680000000000007 4 4 C1.9753674491034872 3.347867082956668 1.9753674491034872 3.347867082956668 0 3 C0 2.009999999999991 0 1.0199999999999818 0 0 Z " fill="#2D6F72" transform="translate(537,362)"/>
<path d="M0 0 C1.4175056312275274 0.11509661108254932 2.834011692774311 0.24253657771112103 4.25 0.375 C5.038906249999968 0.4446093750000273 5.82781250000005 0.5142187499999977 6.640625 0.5859375 C9.085876996701245 1.0150711285601233 10.848369027767717 1.7860063780524342 13 3 C13 3.660000000000025 13 4.319999999999993 13 5 C13.990000000000009 5.329999999999984 14.980000000000018 5.660000000000025 16 6 C15.009999999999991 6.4950000000000045 15.009999999999991 6.4950000000000045 14 7 C12.265625 6.29296875 12.265625 6.29296875 10.25 5.1875 C6.906549766934859 3.4242570851171195 3.6315625916502086 2.0894687774950853 0 1 C0 0.6700000000000159 0 0.339999999999975 0 0 Z " fill="#3B6C48" transform="translate(528,365)"/>
<path d="M0 0 C0.9900000000000091 0.3299999999999841 1.9800000000000182 0.660000000000025 3 1 C3 1.660000000000025 3 2.319999999999993 3 3 C3.659999999999968 3 4.32000000000005 3 5 3 C5 5.970000000000027 5 8.939999999999998 5 12 C3.2093142698103065 9.313971404715517 2.339442090435 7.337341101818822 1.375 4.3125 C1.1146093749999864 3.5042578124999864 0.8542187499999727 2.6960156249999727 0.5859375 1.86328125 C0.392578125 1.2483984374999864 0.19921875 0.6335156249999727 0 0 Z " fill="#1A614A" transform="translate(566,396)"/>
<path d="M0 0 C0 4.075460128643726 -1.553044477085109 5.805363622861137 -4 9 C-6.25 10.375 -6.25 10.375 -8 11 C-6.63629700645572 8.00779731513586 -5.05091916927762 5.709734713096452 -2.875 3.25 C-2.336171874999991 2.636406249999993 -1.7973437499999818 2.0228124999999864 -1.2421875 1.390625 C-0.6273046874999864 0.7022656249999955 -0.6273046874999864 0.7022656249999955 0 0 Z " fill="#DECC7A" transform="translate(463,380)"/>
<path d="M0 0 C1.6499999999999773 0.9900000000000091 3.3000000000000114 1.9800000000000182 5 3 C5 3.660000000000025 5 4.319999999999993 5 5 C4.009999999999991 5 3.019999999999982 5 2 5 C2 7.310000000000002 2 9.620000000000005 2 12 C1.670000000000016 12 1.339999999999975 12 1 12 C0.6700000000000159 8.04000000000002 0.339999999999975 4.079999999999984 0 0 Z " fill="#276364" transform="translate(409,441)"/>
<path d="M0 0 C3.3000000000000114 0 6.600000000000023 0 10 0 C10.329999999999984 1.32000000000005 10.660000000000025 2.6399999999999864 11 4 C7.3700000000000045 3.009999999999991 3.740000000000009 2.019999999999982 0 1 C0 0.6699999999999591 0 0.34000000000003183 0 0 Z " fill="#53AAC3" transform="translate(497,592)"/>
<path d="M0 0 C1.75 1.25 1.75 1.25 2.75 3.25 C-1.2100000000000364 3.25 -5.169999999999959 3.25 -9.25 3.25 C-6.4809190281631 0.4809190281631004 -3.913022876384389 -1.3043409587947963 0 0 Z " fill="#407453" transform="translate(518.25,446.75)"/>
<path d="M0 0 C1.4401048095289752 0.25662245033532827 2.8770687022097263 0.5309082143090791 4.3125 0.8125 C5.113007812499973 0.9633203125000023 5.913515624999945 1.1141406250000045 6.73828125 1.26953125 C9.23445586831292 2.075722361613998 10.324221057664658 3.0205200195715065 12 5 C7.805304287044237 4.400757755292034 3.9900016609929025 3.4250005932117915 0 2 C0 1.339999999999975 0 0.6800000000000068 0 0 Z " fill="#E3CF75" transform="translate(528,366)"/>
<path d="M0 0 C0 0.6599999999999682 0 1.32000000000005 0 2 C-2.75 4.1875 -2.75 4.1875 -6 6 C-8.203125 5.61328125 -8.203125 5.61328125 -10 5 C-8.71186658302804 4.161215449413589 -7.4193674401437875 3.3291321680636656 -6.125 2.5 C-5.405703125000002 2.0359375000000455 -4.6864062500000045 1.5718749999999773 -3.9453125 1.09375 C-2 0 -2 0 0 0 Z " fill="#2C6B6E" transform="translate(368,521)"/>
<path d="M0 0 C1.6499999999999773 0 3.3000000000000114 0 5 0 C4.670000000000016 0.9900000000000091 4.339999999999975 1.9800000000000182 4 3 C1.4375 4.1875 1.4375 4.1875 -1 5 C-0.6700000000000159 3.3500000000000227 -0.339999999999975 1.6999999999999886 0 0 Z " fill="#226854" transform="translate(471,369)"/>
<path d="M0 0 C2.5 1.125 2.5 1.125 5 3 C5.3125 6.1875 5.3125 6.1875 5 9 C0.5714285714285552 3.8571428571428896 0.5714285714285552 3.8571428571428896 0 0 Z " fill="#3C6F70" transform="translate(644,519)"/>
<path d="M0 0 C1.9800000000000182 0 3.9599999999999795 0 6 0 C4.019999999999982 2.9700000000000273 4.019999999999982 2.9700000000000273 2 6 C1.339999999999975 5.339999999999975 0.6800000000000068 4.680000000000007 0 4 C0 2.680000000000007 0 1.3600000000000136 0 0 Z " fill="#216657" transform="translate(456,381)"/>
<path d="M0 0 C-4.9500000000000455 1.4850000000000136 -4.9500000000000455 1.4850000000000136 -10 3 C-10.330000000000041 2.009999999999991 -10.659999999999968 1.0199999999999818 -11 0 C-6.794057737863682 -0.7279515453697059 -4.19895255057304 -1.0497381376432031 0 0 Z " fill="#63A3B6" transform="translate(675,644)"/>
<path d="M0 0 C0.660000000000025 0.3299999999999841 1.3199999999999932 0.660000000000025 2 1 C-0.75 3.0625 -0.75 3.0625 -4 5 C-6.203125 4.62109375 -6.203125 4.62109375 -8 4 C-6.71349293842411 3.302892685239101 -5.420593351338141 2.6175712431401053 -4.125 1.9375 C-3.4057031250000023 1.5546484375000205 -2.6864062500000045 1.171796874999984 -1.9453125 0.77734375 C-1.3033593750000136 0.5208203125000068 -0.6614062500000273 0.26429687500001364 0 0 Z " fill="#CDC774" transform="translate(485,366)"/>
<path d="M0 0 C2.4750000000000227 0.9900000000000091 2.4750000000000227 0.9900000000000091 5 2 C4.288437499999986 2.6496875000000273 4.288437499999986 2.6496875000000273 3.5625 3.3125 C1.76313042837387 5.0230961260315325 1.76313042837387 5.0230961260315325 1 8 C-0.35439667679281683 5.29120664641448 -0.06501450702637612 2.9906673232112553 0 0 Z " fill="#236265" transform="translate(649,523)"/>
<path d="M0 0 C3.3000000000000114 0.3299999999999841 6.600000000000023 0.660000000000025 10 1 C6 4 6 4 3.875 3.875 C2 3 2 3 0 0 Z " fill="#B2BD6A" transform="translate(463,465)"/>
<path d="M0 0 C0.660000000000025 0 1.3199999999999932 0 2 0 C1.375 1.875 1.375 1.875 0 4 C-3.125 5.25 -3.125 5.25 -6 6 C-4 4 -2 2 0 0 Z " fill="#D8C877" transform="translate(470,374)"/>
</svg>
